<?xml version="1.0" encoding="utf-8"?>
<!-- Generator: Adobe Illustrator 28.1.0, SVG Export Plug-In . SVG Version: 6.00 Build 0)  -->
<svg version="1.1" id="Layer_1" xmlns="http://www.w3.org/2000/svg" xmlns:xlink="http://www.w3.org/1999/xlink" x="0px" y="0px"
	 viewBox="0 0 145 86" style="enable-background:new 0 0 145 86;" xml:space="preserve">
<style type="text/css">
	.st0{fill:#F7E5D6;}
	.st1{fill:#B58159;}
	.st2{fill:#BC6A3C;}
</style>
<path class="st0" d="M15.6,0h113.8C138,0,145,5.8,145,13v60c0,7.2-7,13-15.6,13H15.6C7,86,0,80.2,0,73V13C0,5.8,7,0,15.6,0z"/>
<path class="st1" d="M32.1,65h-2l-0.8-1.7h-3.4L25.2,65h-1l3.7-8.4h0.3L32.1,65z M27.6,59.4l-1.2,3h2.6L27.6,59.4z M37.5,62.6h0.8
	c-0.1,1.8-1.4,2.5-2.9,2.5c-1.9,0-3.2-1.2-3.2-3.1c0-1.9,1.4-3.1,3.2-3.1c1.5,0,2.7,0.8,2.8,2.5h-0.8c-0.1-1.1-0.6-1.7-1.6-1.7
	c-1.1,0-1.8,0.8-1.8,2.2c0,1.5,0.6,2.3,1.8,2.3C36.9,64.2,37.5,63.6,37.5,62.6z M44.5,62.6h0.8c-0.1,1.8-1.4,2.5-2.9,2.5
	c-1.9,0-3.2-1.2-3.2-3.1c0-1.9,1.4-3.1,3.2-3.1c1.5,0,2.7,0.8,2.8,2.5h-0.8c-0.1-1.1-0.6-1.7-1.6-1.7c-1.1,0-1.8,0.8-1.8,2.2
	c0,1.5,0.6,2.3,1.8,2.3C43.8,64.2,44.4,63.6,44.5,62.6z M49.3,58.9c1.6,0,2.9,1.1,2.8,3.3h-4c0.1,1.4,0.5,2.1,1.6,2.1
	c0.9,0,1.4-0.5,1.5-1.3h0.9c-0.1,1.5-1.2,2.2-2.6,2.2c-1.9,0-3.2-1.3-3.2-3.2C46.2,60.2,47.5,58.9,49.3,58.9z M49.3,59.6
	c-0.7,0-1.2,0.4-1.3,1.7h2.4C50.4,60.1,50.1,59.6,49.3,59.6z M57.1,58.9c1.5,0,2.6,1.1,2.6,3.1c0,2-1.1,3.1-2.6,3.1
	c-0.8,0-1.5-0.4-1.9-1.1v2.9h-1.7V59h1.7v1C55.5,59.3,56.2,58.9,57.1,58.9z M56.5,64.2c0.8,0,1.4-0.7,1.4-2.2c0-1.5-0.6-2.2-1.3-2.2
	c-0.8,0-1.4,0.8-1.4,2.2C55.1,63.4,55.6,64.2,56.5,64.2z M64.3,62.9h0.8c0,1.5-0.8,2.2-2,2.2c-1.2,0-2-0.6-2-2v-3.4h-0.9V59h0.9
	l1-1.6h0.7V59h2v0.8h-2v3.6c0,0.5,0.2,0.8,0.7,0.8C64,64.2,64.3,63.9,64.3,62.9z M75.7,65h-2l-0.8-1.7h-3.4L68.8,65h-1l3.7-8.4h0.3
	L75.7,65z M71.1,59.4l-1.2,3h2.6L71.1,59.4z M80.2,58.9c1.5,0,2.6,1.1,2.6,3.1c0,2-1.1,3.1-2.6,3.1c-0.8,0-1.5-0.4-1.9-1.1v2.9h-1.7
	V59h1.7v1C78.7,59.3,79.4,58.9,80.2,58.9z M79.6,64.2c0.8,0,1.4-0.7,1.4-2.2c0-1.5-0.6-2.2-1.3-2.2c-0.8,0-1.4,0.8-1.4,2.2
	C78.3,63.4,78.8,64.2,79.6,64.2z M86.9,58.9c1.6,0,3.2,1.2,3.2,3.1c0,1.9-1.6,3.1-3.2,3.1c-1.5,0-3.2-1.3-3.2-3.1
	C83.7,60.1,85.3,58.9,86.9,58.9z M86.9,64.4c0.9,0,1.3-0.7,1.3-2.4c0-1.7-0.4-2.4-1.3-2.4c-0.9,0-1.3,0.7-1.3,2.4
	C85.6,63.7,86,64.4,86.9,64.4z M93.1,65h-1.7v-8.4h1.7V65z M97.5,58.9c1.6,0,3.2,1.2,3.2,3.1c0,1.9-1.6,3.1-3.2,3.1
	c-1.5,0-3.2-1.3-3.2-3.1C94.3,60.1,95.9,58.9,97.5,58.9z M97.5,64.4c0.9,0,1.3-0.7,1.3-2.4c0-1.7-0.4-2.4-1.3-2.4
	c-0.9,0-1.3,0.7-1.3,2.4C96.2,63.7,96.6,64.4,97.5,64.4z M103.2,63.2h2c1.3,0,2.1,0.7,2.1,1.7c0,1.4-1.3,2.1-3.3,2.1
	c-1.2,0-2.3-0.4-2.9-1l0.5-0.6c0.5,0.6,1.5,0.9,2.5,0.9c1.2,0,1.9-0.3,1.9-0.9c0-0.4-0.3-0.6-1-0.6h-2.6V62
	c-0.5-0.3-0.8-0.8-0.8-1.3c0-1.1,1.1-1.8,2.8-1.8h0.2c1.2,0,1.8-0.4,1.8-1c0-0.6-0.5-0.7-1.4-0.5v-0.8c1.4-0.2,2.2,0.2,2.2,1.1
	c0,0.7-0.5,1.2-1.3,1.5c0.7,0.3,1.2,0.8,1.2,1.5c0,1.1-1.1,1.8-2.7,1.8c-0.4,0-0.8,0-1.1-0.1V63.2z M104.2,59.5
	c-0.7,0-1.1,0.4-1.1,1.1c0,0.8,0.4,1.2,1.1,1.2c0.7,0,1.1-0.4,1.1-1.2C105.3,59.9,104.9,59.5,104.2,59.5z M109.3,56.1
	c0.6,0,1,0.4,1,1c0,0.5-0.4,1-1,1c-0.6,0-1-0.4-1-1C108.3,56.5,108.7,56.1,109.3,56.1z M110.1,65h-1.7v-6h1.7V65z M114.5,58.9
	c1.6,0,2.9,1.1,2.8,3.3h-4c0.1,1.4,0.5,2.1,1.6,2.1c0.9,0,1.4-0.5,1.5-1.3h0.9c-0.1,1.5-1.2,2.2-2.6,2.2c-1.9,0-3.2-1.3-3.2-3.2
	C111.4,60.2,112.7,58.9,114.5,58.9z M114.6,59.6c-0.7,0-1.2,0.4-1.3,1.7h2.4C115.6,60.1,115.3,59.6,114.6,59.6z M120.8,65.1
	c-1.4,0-2.5-0.8-2.5-2.2h0.9c0,1,0.7,1.4,1.6,1.4c0.7,0,1-0.2,1-0.7c0-1.3-3.5-0.5-3.5-2.8c0-1.2,1-1.9,2.4-1.9c1.3,0,2.2,0.7,2.2,2
	h-0.9c0-0.8-0.5-1.2-1.3-1.2c-0.7,0-1.1,0.3-1.1,0.7c0,1.2,3.5,0.4,3.5,2.7C123.2,64.3,122.2,65.1,120.8,65.1z"/>
<path class="st2" d="M65.5,37.9V22h3.3v28.1h-1.4l-19-24v24H45V22h7.9L65.5,37.9z M88,21.6c7.3,0,14.5,5.8,14.5,14.4
	S95.2,50.4,88,50.4c-7.2,0-14.4-5.8-14.4-14.4S80.7,21.6,88,21.6z M88,47.5c5.2,0,8-3.7,8-11.5s-2.8-11.5-8-11.5s-8,3.7-8,11.5
	S82.8,47.5,88,47.5z"/>
</svg>
