<?xml version="1.0" encoding="utf-8"?>
<!-- Generator: Adobe Illustrator 28.1.0, SVG Export Plug-In . SVG Version: 6.00 Build 0)  -->
<svg version="1.1" id="Layer_1" xmlns="http://www.w3.org/2000/svg" xmlns:xlink="http://www.w3.org/1999/xlink" x="0px" y="0px"
	 viewBox="0 0 121 86" style="enable-background:new 0 0 121 86;" xml:space="preserve">
<style type="text/css">
	.st0{fill:#F7E5D6;}
	.st1{display:none;fill:#BC6A3C;}
	.st2{fill:#B58159;}
	.st3{fill:#BC6A3C;}
</style>
<path class="st0" d="M13,0h95c7.2,0,13,5.8,13,13v60c0,7.2-5.8,13-13,13H13C5.8,86,0,80.2,0,73V13C0,5.8,5.8,0,13,0z"/>
<path class="st1" d="M38.1,34.9L45.6,23h3.5l-9.4,14.7V51h-6.1V38.3L23.9,23h7.2L38.1,34.9z M70.9,23v2.9H59.4v9.5h10.2v2.9H59.4
	v9.9h11.4V51H53.3V23H70.9z M84.9,51.4c-6.2,0-10.5-3.7-10.5-9.2h3.3c0,3.9,3.1,6.4,7.3,6.4c3.1,0,5-1.4,5-3.6
	c0-6.2-15.2-2.6-15.2-13.5c0-5.3,4-8.8,10-8.8c5.6,0,9.4,3.1,9.4,8.4h-3.2c0-3.5-2.2-5.6-5.9-5.6c-3,0-4.9,1.4-4.9,3.6
	c0,6.6,15.3,3.1,15.3,13.3C95.4,47.8,91.1,51.4,84.9,51.4z"/>
<path class="st1" d="M26,60.9l2.5-6h1.1L25.6,64h-0.4l-2.5-5.6L20.4,64h-0.4l-3.9-9.1h2.1l2.5,5.9l1.5-3.5l-1.1-2.4h2.2L26,60.9z
	 M31.6,54.3c0.7,0,1.1,0.5,1.1,1.1s-0.4,1.1-1.1,1.1c-0.6,0-1.1-0.5-1.1-1.1S30.9,54.3,31.6,54.3z M32.5,64h-1.9v-6.5h1.9V64z
	 M38,61.8h0.9c0,1.7-0.8,2.4-2.1,2.4c-1.3,0-2.2-0.7-2.2-2.1v-3.6h-1v-0.8h1l1.1-1.7h0.7v1.7h2.2v0.8h-2.2v3.9
	c0,0.6,0.2,0.9,0.7,0.9C37.7,63.1,38,62.8,38,61.8z M44.1,57.4c1.4,0,2.3,0.9,2.3,2.3V64h-1.9v-4.1c0-0.9-0.4-1.4-1.2-1.4
	c-0.9,0-1.5,0.7-1.5,2V64H40v-9.1h1.9v3.9C42.3,57.9,43.1,57.4,44.1,57.4z M51.2,54.9h3.1c2.5,0,3.8,0.9,3.8,2.5
	c0,1.6-1.3,2.6-3.8,2.6h-1.1V64h-2V54.9z M53.1,59.1h1c1.3,0,1.9-0.7,1.9-1.7c0-0.9-0.6-1.6-1.9-1.6h-1V59.1z M61.2,64h-1.9v-9.1
	h1.9V64z M65.9,57.4c1.7,0,3.1,1.1,3,3.5h-4.4c0.1,1.5,0.6,2.2,1.8,2.2c0.9,0,1.5-0.5,1.7-1.4h0.9c-0.2,1.6-1.3,2.4-2.8,2.4
	c-2,0-3.5-1.4-3.5-3.4C62.6,58.7,64,57.4,65.9,57.4z M66,58.1c-0.8,0-1.3,0.5-1.4,1.8h2.6C67.1,58.7,66.7,58.1,66,58.1z M73.2,57.4
	c1.8,0,2.9,0.9,2.9,2.8V64h-0.7l-0.8-1.7c-0.4,1.2-1.4,1.8-2.5,1.8c-1.3,0-2-0.7-2-1.6c0-1.3,1.4-2.2,4.3-2.3v-0.4
	c0-0.9-0.4-1.5-1.4-1.5c-1,0-1.6,0.6-1.6,1.8h-0.9C70.3,58.4,71.3,57.4,73.2,57.4z M72.7,63.1c0.8,0,1.5-0.8,1.5-2.1
	c-1.4,0-2.4,0.4-2.4,1.3C71.8,62.7,72.1,63.1,72.7,63.1z M80.2,64.1c-1.5,0-2.7-0.8-2.7-2.4h1c0,1,0.8,1.5,1.7,1.5
	c0.7,0,1.1-0.2,1.1-0.8c0-1.4-3.8-0.5-3.8-3.1c0-1.3,1.1-2.1,2.6-2.1c1.5,0,2.4,0.8,2.4,2.1h-0.9c0-0.8-0.5-1.3-1.4-1.3
	c-0.7,0-1.2,0.3-1.2,0.8c0,1.3,3.8,0.5,3.8,3C82.8,63.2,81.7,64.1,80.2,64.1z M88.6,60.8v-3.2h1.9V64h-0.7l-0.8-1.7
	c-0.4,1.1-1.2,1.8-2.5,1.8c-1.4,0-2.3-0.9-2.3-2.3v-4.3H86v4.1c0,0.9,0.4,1.4,1.1,1.4C88.1,63,88.6,62.2,88.6,60.8z M94.2,57.5V59
	c0.5-1,1.2-1.6,2.3-1.6v1.1c-1.7-0.1-2.3,1.1-2.3,3V64h-1.9v-6.5H94.2z M100.1,57.4c1.7,0,3.1,1.1,3,3.5h-4.4
	c0.1,1.5,0.6,2.2,1.8,2.2c0.9,0,1.5-0.5,1.7-1.4h0.9c-0.2,1.6-1.3,2.4-2.8,2.4c-2,0-3.5-1.4-3.5-3.4C96.8,58.7,98.2,57.4,100.1,57.4
	z M100.2,58.1c-0.8,0-1.3,0.5-1.4,1.8h2.6C101.4,58.7,101,58.1,100.2,58.1z"/>
<path class="st2" d="M18.7,62.8h-2l-0.8-1.7h-3.4l-0.7,1.7h-1l3.7-8.4h0.3L18.7,62.8z M14.1,57.3l-1.2,3h2.6L14.1,57.3z M24.1,60.4
	h0.8c-0.1,1.8-1.4,2.5-2.9,2.5c-1.9,0-3.2-1.2-3.2-3.1c0-1.9,1.4-3.1,3.2-3.1c1.5,0,2.7,0.8,2.8,2.5h-0.8c-0.1-1.1-0.6-1.7-1.6-1.7
	c-1.1,0-1.8,0.8-1.8,2.2c0,1.5,0.6,2.3,1.8,2.3C23.4,62.1,24,61.4,24.1,60.4z M31,60.4h0.8C31.8,62.2,30.5,63,29,63
	c-1.9,0-3.2-1.2-3.2-3.1c0-1.9,1.4-3.1,3.2-3.1c1.5,0,2.7,0.8,2.8,2.5H31c-0.1-1.1-0.6-1.7-1.6-1.7c-1.1,0-1.8,0.8-1.8,2.2
	c0,1.5,0.6,2.3,1.8,2.3C30.4,62.1,31,61.4,31,60.4z M35.8,56.7c1.6,0,2.9,1.1,2.8,3.3h-4c0.1,1.4,0.5,2.1,1.6,2.1
	c0.9,0,1.4-0.5,1.5-1.3h0.9C38.5,62.2,37.4,63,36,63c-1.9,0-3.2-1.3-3.2-3.2C32.8,58,34.1,56.7,35.8,56.7z M35.9,57.4
	c-0.7,0-1.2,0.4-1.3,1.7H37C37,57.9,36.6,57.4,35.9,57.4z M43.6,56.7c1.5,0,2.6,1.1,2.6,3.1c0,2-1.1,3.1-2.6,3.1
	c-0.8,0-1.5-0.4-1.9-1.1v2.9H40v-7.9h1.7v1C42.1,57.1,42.8,56.7,43.6,56.7z M43,62c0.8,0,1.4-0.7,1.4-2.2c0-1.5-0.6-2.2-1.3-2.2
	c-0.8,0-1.4,0.8-1.4,2.2C41.7,61.2,42.2,62,43,62z M50.9,60.8h0.8c0,1.5-0.8,2.2-2,2.2c-1.2,0-2-0.6-2-2v-3.4h-0.9v-0.8h0.9l1-1.6
	h0.7v1.6h2v0.8h-2v3.6c0,0.5,0.2,0.8,0.7,0.8C50.6,62,50.8,61.8,50.9,60.8z M62.2,62.8h-2l-0.8-1.7H56l-0.7,1.7h-1l3.7-8.4h0.3
	L62.2,62.8z M57.7,57.3l-1.2,3H59L57.7,57.3z M66.8,56.7c1.5,0,2.6,1.1,2.6,3.1c0,2-1.1,3.1-2.6,3.1c-0.8,0-1.5-0.4-1.9-1.1v2.9
	h-1.7v-7.9h1.7v1C65.3,57.1,65.9,56.7,66.8,56.7z M66.2,62c0.8,0,1.4-0.7,1.4-2.2c0-1.5-0.6-2.2-1.3-2.2c-0.8,0-1.4,0.8-1.4,2.2
	C64.8,61.2,65.4,62,66.2,62z M73.5,56.7c1.6,0,3.2,1.2,3.2,3.1c0,1.9-1.6,3.1-3.2,3.1c-1.5,0-3.2-1.3-3.2-3.1
	C70.3,58,71.9,56.7,73.5,56.7z M73.5,62.2c0.9,0,1.3-0.7,1.3-2.4c0-1.7-0.4-2.4-1.3-2.4c-0.9,0-1.3,0.7-1.3,2.4
	C72.1,61.5,72.6,62.2,73.5,62.2z M79.6,62.8h-1.7v-8.4h1.7V62.8z M84.1,56.7c1.6,0,3.2,1.2,3.2,3.1c0,1.9-1.6,3.1-3.2,3.1
	c-1.5,0-3.2-1.3-3.2-3.1C80.9,58,82.5,56.7,84.1,56.7z M84.1,62.2c0.9,0,1.3-0.7,1.3-2.4c0-1.7-0.4-2.4-1.3-2.4
	c-0.9,0-1.3,0.7-1.3,2.4C82.7,61.5,83.2,62.2,84.1,62.2z M89.7,61.1h2c1.3,0,2.1,0.7,2.1,1.7c0,1.4-1.3,2.1-3.3,2.1
	c-1.2,0-2.3-0.4-2.9-1l0.5-0.6c0.5,0.6,1.5,0.9,2.5,0.9c1.2,0,1.9-0.3,1.9-0.9c0-0.4-0.3-0.6-1-0.6h-2.6v-2.9
	C88.3,59.5,88,59,88,58.5c0-1.1,1.1-1.8,2.8-1.8H91c1.2,0,1.8-0.4,1.8-1c0-0.6-0.5-0.7-1.4-0.5v-0.8c1.4-0.2,2.2,0.2,2.2,1.1
	c0,0.7-0.5,1.2-1.3,1.5c0.7,0.3,1.2,0.8,1.2,1.5c0,1.1-1.1,1.8-2.7,1.8c-0.4,0-0.8,0-1.1-0.1V61.1z M90.8,57.3
	c-0.7,0-1.1,0.4-1.1,1.1c0,0.8,0.4,1.2,1.1,1.2c0.7,0,1.1-0.4,1.1-1.2C91.9,57.7,91.5,57.3,90.8,57.3z M95.8,53.9c0.6,0,1,0.4,1,1
	c0,0.5-0.4,1-1,1c-0.6,0-1-0.4-1-1C94.8,54.3,95.2,53.9,95.8,53.9z M96.7,62.8H95v-6h1.7V62.8z M101,56.7c1.6,0,2.9,1.1,2.8,3.3h-4
	c0.1,1.4,0.5,2.1,1.6,2.1c0.9,0,1.4-0.5,1.5-1.3h0.9c-0.1,1.5-1.2,2.2-2.6,2.2c-1.9,0-3.2-1.3-3.2-3.2C98,58,99.3,56.7,101,56.7z
	 M101.1,57.4c-0.7,0-1.2,0.4-1.3,1.7h2.4C102.2,57.9,101.8,57.4,101.1,57.4z M107.4,63c-1.4,0-2.5-0.8-2.5-2.2h0.9
	c0,1,0.7,1.4,1.6,1.4c0.7,0,1-0.2,1-0.7c0-1.3-3.5-0.5-3.5-2.8c0-1.2,1-1.9,2.4-1.9c1.3,0,2.2,0.7,2.2,2h-0.9c0-0.8-0.5-1.2-1.3-1.2
	c-0.7,0-1.1,0.3-1.1,0.7c0,1.2,3.5,0.4,3.5,2.7C109.8,62.1,108.8,63,107.4,63z"/>
<path class="st3" d="M52.1,35.7V19.8h3.3v28.1h-1.4l-19-24v24h-3.3v-28h7.9L52.1,35.7z M74.5,19.4c7.3,0,14.5,5.8,14.5,14.4
	s-7.2,14.4-14.5,14.4c-7.2,0-14.4-5.8-14.4-14.4S67.3,19.4,74.5,19.4z M74.5,45.4c5.2,0,8-3.7,8-11.5s-2.8-11.5-8-11.5
	s-8,3.7-8,11.5S69.3,45.4,74.5,45.4z"/>
</svg>
