<svg width="121" height="86" viewBox="0 0 121 86" fill="none" xmlns="http://www.w3.org/2000/svg">
<rect width="121" height="86" rx="13" fill="#F7E5D6"/>
<path d="M38.08 34.92L45.64 23H49.12L39.76 37.72V51H33.68V38.28L23.92 23H31.12L38.08 34.92ZM70.8666 23V25.88H59.4266V35.36H69.6666V38.24H59.4266V48.12H70.8666V51H53.3066V23H70.8666ZM84.8884 51.4C78.6484 51.4 74.3684 47.72 74.3684 42.16H77.6484C77.6484 46.08 80.7284 48.52 84.9284 48.52C88.0484 48.52 89.9284 47.16 89.9284 44.92C89.9284 38.68 74.6884 42.32 74.6884 31.4C74.6884 26.12 78.7284 22.6 84.6884 22.6C90.2884 22.6 94.1284 25.72 94.1284 31.04H90.8884C90.8884 27.56 88.6484 25.48 84.9684 25.48C81.9684 25.48 80.0884 26.84 80.0884 29.08C80.0884 35.72 95.3684 32.16 95.3684 42.4C95.3684 47.8 91.1284 51.4 84.8884 51.4Z" fill="#BC6A3C"/>
<path d="M26.023 60.906L28.493 54.9H29.572L25.646 64.026H25.269L22.773 58.475L20.433 64.026H20.069L16.156 54.9H18.249L20.745 60.815L22.24 57.266L21.174 54.9H23.345L26.023 60.906ZM31.5566 54.328C32.2196 54.328 32.6356 54.796 32.6356 55.381C32.6356 55.966 32.2196 56.434 31.5566 56.434C30.9066 56.434 30.4776 55.966 30.4776 55.381C30.4776 54.796 30.9066 54.328 31.5566 54.328ZM32.4926 64H30.6206V57.5H32.4926V64ZM38.0463 61.764H38.9433C38.9433 63.428 38.1243 64.117 36.8243 64.117C35.4853 64.117 34.6663 63.441 34.6663 61.985V58.345H33.6783V57.5H34.6663L35.7973 55.81H36.5383V57.5H38.6963V58.345H36.5383V62.258C36.5383 62.83 36.7723 63.129 37.2663 63.129C37.7343 63.129 38.0333 62.83 38.0463 61.764ZM44.1096 57.37C45.5006 57.37 46.3976 58.228 46.3976 59.71V64H44.5256V59.944C44.5256 59.021 44.0966 58.501 43.3686 58.501C42.4716 58.501 41.9126 59.242 41.9126 60.529V64H40.0406V54.9H41.9126V58.813C42.3026 57.903 43.0566 57.37 44.1096 57.37ZM51.1514 54.9H54.2844C56.7544 54.9 58.1194 55.836 58.1194 57.422C58.1194 59.06 56.7804 60.061 54.2844 60.061H53.1404V64H51.1514V54.9ZM53.1404 59.125H54.1284C55.4024 59.125 56.0394 58.41 56.0394 57.448C56.0394 56.538 55.4154 55.836 54.1284 55.836H53.1404V59.125ZM61.1713 64H59.2993V54.9H61.1713V64ZM65.893 57.37C67.609 57.37 68.987 58.514 68.922 60.919H64.567C64.645 62.453 65.126 63.168 66.335 63.168C67.284 63.168 67.869 62.648 67.986 61.764H68.909C68.753 63.363 67.609 64.13 66.062 64.13C64.021 64.13 62.578 62.739 62.578 60.711C62.578 58.748 63.982 57.37 65.893 57.37ZM65.971 58.137C65.165 58.137 64.658 58.592 64.567 59.983H67.128C67.141 58.696 66.738 58.137 65.971 58.137ZM73.165 57.37C74.933 57.37 76.077 58.267 76.077 60.152V64.026H75.336L74.53 62.323C74.101 63.558 73.126 64.13 71.982 64.13C70.682 64.13 69.941 63.467 69.941 62.518C69.941 61.179 71.345 60.321 74.205 60.191V59.788C74.205 58.852 73.828 58.293 72.827 58.293C71.826 58.293 71.228 58.917 71.228 60.087H70.318C70.318 58.384 71.293 57.37 73.165 57.37ZM72.697 63.051C73.542 63.051 74.166 62.258 74.205 60.919C72.762 60.945 71.813 61.348 71.813 62.232C71.813 62.726 72.125 63.051 72.697 63.051ZM80.1624 64.13C78.6154 64.13 77.4324 63.298 77.4324 61.764H78.3944C78.3944 62.804 79.1614 63.298 80.1364 63.298C80.8514 63.298 81.2674 63.051 81.2674 62.544C81.2674 61.179 77.5104 62.037 77.5104 59.476C77.5104 58.215 78.5634 57.37 80.1234 57.37C81.5794 57.37 82.5414 58.15 82.5414 59.489H81.5924C81.5924 58.67 81.0594 58.189 80.2274 58.189C79.4864 58.189 79.0574 58.462 79.0574 58.969C79.0574 60.269 82.8144 59.424 82.8144 61.946C82.8144 63.246 81.7094 64.13 80.1624 64.13ZM88.6275 60.75V57.5H90.4995V64H89.7585L88.9265 62.336C88.5755 63.48 87.7435 64.13 86.4305 64.13C85.0525 64.13 84.1425 63.22 84.1425 61.79V57.5H86.0145V61.556C86.0145 62.479 86.4175 62.999 87.1325 62.999C88.0555 62.999 88.6275 62.206 88.6275 60.75ZM94.1665 57.5V58.969C94.6345 58.007 95.4145 57.37 96.4285 57.37V58.514C94.7385 58.41 94.1665 59.658 94.1665 61.478V64H92.2945V57.5H94.1665ZM100.132 57.37C101.848 57.37 103.226 58.514 103.161 60.919H98.8062C98.8842 62.453 99.3652 63.168 100.574 63.168C101.523 63.168 102.108 62.648 102.225 61.764H103.148C102.992 63.363 101.848 64.13 100.301 64.13C98.2602 64.13 96.8172 62.739 96.8172 60.711C96.8172 58.748 98.2212 57.37 100.132 57.37ZM100.21 58.137C99.4042 58.137 98.8972 58.592 98.8062 59.983H101.367C101.38 58.696 100.977 58.137 100.21 58.137Z" fill="#BC6A3C"/>
</svg>
